<?xml version="1.0" encoding="UTF-8" standalone="no"?><svg width="800" height="400" viewBox="0 0 800 400" xmlns="http://www.w3.org/2000/svg"><style>circle{fill:#D8DDE1} .sn{fill:#2582FF}</style><circle cx="194" cy="16" r="2.0"/><circle cx="206" cy="16" r="2.0"/><circle cx="219" cy="16" r="2.2"/><circle cx="231" cy="16" r="2.9"/><circle cx="244" cy="16" r="2.6"/><circle cx="256" cy="16" r="2.0"/><circle cx="269" cy="16" r="2.0"/><circle cx="281" cy="16" r="2.1"/><circle cx="294" cy="16" r="2.4"/><circle cx="306" cy="16" r="2.9"/><circle cx="319" cy="16" r="3.3"/><circle cx="331" cy="16" r="3.2"/><circle cx="344" cy="16" r="2.6"/><circle cx="356" cy="16" r="2.0"/><circle cx="144" cy="29" r="2.0"/><circle cx="156" cy="29" r="2.0"/><circle cx="169" cy="29" r="2.0"/><circle cx="181" cy="29" r="2.0"/><circle cx="206" cy="29" r="3.4"/><circle cx="219" cy="29" r="4.0"/><circle cx="231" cy="29" r="2.0"/><circle cx="244" cy="29" r="2.0"/><circle cx="256" cy="29" r="3.1"/><circle cx="269" cy="29" r="4.1"/><circle cx="281" cy="29" r="5.2"/><circle cx="294" cy="29" r="5.2"/><circle cx="306" cy="29" r="5.2"/><circle cx="331" cy="29" r="5.2"/><circle cx="344" cy="29" r="5.2"/><circle cx="356" cy="29" r="2.5"/><circle cx="431" cy="29" r="2.0"/><circle cx="444" cy="29" r="2.0"/><circle cx="531" cy="29" r="2.0"/><circle cx="606" cy="29" r="2.0"/><circle cx="619" cy="29" r="2.7"/><circle cx="631" cy="29" r="3.4"/><circle cx="644" cy="29" r="2.1"/><circle cx="44" cy="41" r="2.0"/><circle cx="56" cy="41" r="2.0"/><circle cx="69" cy="41" r="2.0"/><circle cx="81" cy="41" r="2.0"/><circle cx="119" cy="41" r="2.0"/><circle cx="131" cy="41" r="3.2"/><circle cx="144" cy="41" r="3.4"/><circle cx="156" cy="41" r="3.4"/><circle cx="169" cy="41" r="2.4"/><circle cx="181" cy="41" r="2.2"/><circle cx="206" cy="41" r="2.8"/><circle cx="219" cy="41" r="3.7"/><circle cx="231" cy="41" r="3.0"/><circle cx="244" cy="41" r="2.0"/><circle cx="281" cy="41" r="3.3"/><circle cx="294" cy="41" r="5.2"/><circle cx="306" cy="41" r="5.2"/><circle cx="319" cy="41" r="5.2"/><circle cx="331" cy="41" r="5.2"/><circle cx="344" cy="41" r="4.0"/><circle cx="444" cy="41" r="2.0"/><circle cx="519" cy="41" r="2.0"/><circle cx="569" cy="41" r="2.5"/><circle cx="581" cy="41" r="3.9"/><circle cx="594" cy="41" r="4.9"/><circle cx="606" cy="41" r="5.2"/><circle cx="619" cy="41" r="5.1"/><circle cx="631" cy="41" r="5.1"/><circle cx="644" cy="41" r="4.8"/><circle cx="656" cy="41" r="4.6"/><circle cx="681" cy="41" r="4.1"/><circle cx="694" cy="41" r="2.4"/><circle cx="706" cy="41" r="2.8"/><circle cx="719" cy="41" r="3.8"/><circle cx="731" cy="41" r="2.9"/><circle cx="744" cy="41" r="2.0"/><circle cx="756" cy="41" r="2.0"/><circle cx="6" cy="54" r="2.5"/><circle cx="19" cy="54" r="2.0"/><circle cx="31" cy="54" r="2.0"/><circle cx="44" cy="54" r="4.5"/><circle cx="56" cy="54" r="5.2"/><circle cx="69" cy="54" r="5.2"/><circle cx="81" cy="54" r="5.2"/><circle cx="94" cy="54" r="5.2"/><circle cx="106" cy="54" r="5.1"/><circle cx="119" cy="54" r="4.9"/><circle cx="131" cy="54" r="4.1"/><circle cx="144" cy="54" r="4.5"/><circle cx="169" cy="54" r="4.5"/><circle cx="181" cy="54" r="4.1"/><circle cx="194" cy="54" r="4.7"/><circle cx="206" cy="54" r="3.5"/><circle cx="219" cy="54" r="2.0"/><circle cx="231" cy="54" r="2.0"/><circle cx="244" cy="54" r="4.4"/><circle cx="294" cy="54" r="5.2"/><circle cx="306" cy="54" r="4.7"/><circle cx="319" cy="54" r="2.5"/><circle cx="356" cy="54" r="2.1"/><circle cx="431" cy="54" r="3.6"/><circle cx="444" cy="54" r="4.4"/><circle cx="456" cy="54" r="4.4"/><circle cx="469" cy="54" r="4.8"/><circle cx="481" cy="54" r="3.6"/><circle cx="494" cy="54" r="3.5"/><circle cx="506" cy="54" r="4.2"/><circle cx="519" cy="54" r="5.0"/><circle cx="531" cy="54" r="5.1"/><circle cx="544" cy="54" r="5.1"/><circle cx="556" cy="54" r="4.8"/><circle cx="569" cy="54" r="4.7"/><circle cx="581" cy="54" r="5.2"/><circle cx="594" cy="54" r="5.1"/><circle cx="606" cy="54" r="5.2"/><circle cx="644" cy="54" r="5.2"/><circle cx="656" cy="54" r="5.2"/><circle cx="669" cy="54" r="5.1"/><circle cx="681" cy="54" r="5.1"/><circle cx="694" cy="54" r="5.2"/><circle cx="706" cy="54" r="5.2"/><circle cx="719" cy="54" r="5.1"/><circle cx="731" cy="54" r="5.1"/><circle cx="744" cy="54" r="5.1"/><circle cx="756" cy="54" r="5.2"/><circle cx="769" cy="54" r="5.2"/><circle cx="781" cy="54" r="5.2"/><circle cx="794" cy="54" r="4.7"/><circle cx="31" cy="66" r="2.0"/><circle cx="44" cy="66" r="3.7"/><circle cx="69" cy="66" r="2.7"/><circle cx="81" cy="66" r="2.7"/><circle cx="94" cy="66" r="3.9"/><circle cx="106" cy="66" r="5.1"/><circle cx="144" cy="66" r="4.5"/><circle cx="156" cy="66" r="4.6"/><circle cx="169" cy="66" r="4.5"/><circle cx="194" cy="66" r="2.0"/><circle cx="231" cy="66" r="3.5"/><circle cx="244" cy="66" r="3.0"/><circle cx="256" cy="66" r="2.0"/><circle cx="306" cy="66" r="2.0"/><circle cx="419" cy="66" r="3.9"/><circle cx="431" cy="66" r="4.7"/><circle cx="444" cy="66" r="2.0"/><circle cx="456" cy="66" r="3.8"/><circle cx="469" cy="66" r="4.4"/><circle cx="481" cy="66" r="4.7"/><circle cx="494" cy="66" r="5.2"/><circle cx="506" cy="66" r="5.2"/><circle cx="519" cy="66" r="5.2"/><circle cx="531" cy="66" r="5.2"/><circle cx="544" cy="66" r="5.1"/><circle cx="556" cy="66" r="5.0"/><circle cx="569" cy="66" r="5.1"/><circle cx="581" cy="66" r="5.2"/><circle cx="594" cy="66" r="5.2"/><circle cx="606" cy="66" r="5.2"/><circle cx="619" cy="66" r="5.2"/><circle cx="631" cy="66" r="5.2"/><circle cx="644" cy="66" r="5.2"/><circle cx="656" cy="66" r="5.2"/><circle cx="669" cy="66" r="5.2"/><circle cx="681" cy="66" r="5.2"/><circle cx="694" cy="66" r="5.2"/><circle cx="706" cy="66" r="5.2"/><circle cx="731" cy="66" r="3.4"/><circle cx="744" cy="66" r="2.8"/><circle cx="756" cy="66" r="3.0"/><circle cx="769" cy="66" r="2.5"/><circle cx="781" cy="66" r="2.1"/><circle cx="106" cy="79" r="2.3"/><circle cx="119" cy="79" r="5.0"/><circle cx="131" cy="79" r="5.2"/><circle cx="144" cy="79" r="5.1"/><circle cx="156" cy="79" r="5.0"/><circle cx="169" cy="79" r="4.7"/><circle cx="181" cy="79" r="4.2"/><circle cx="194" cy="79" r="4.8"/><circle cx="206" cy="79" r="3.8"/><circle cx="231" cy="79" r="4.0"/><circle cx="244" cy="79" r="4.8"/><circle cx="256" cy="79" r="4.8"/><circle cx="269" cy="79" r="2.9"/><circle cx="381" cy="79" r="2.0"/><circle cx="394" cy="79" r="3.2"/><circle cx="431" cy="79" r="3.4"/><circle cx="444" cy="79" r="3.3"/><circle cx="456" cy="79" r="5.1"/><circle cx="469" cy="79" r="5.2"/><circle cx="481" cy="79" r="5.2"/><circle cx="506" cy="79" r="5.1"/><circle cx="519" cy="79" r="5.2"/><circle cx="531" cy="79" r="5.2"/><circle cx="544" cy="79" r="5.1"/><circle cx="556" cy="79" r="5.2"/><circle cx="569" cy="79" r="5.1"/><circle cx="581" cy="79" r="5.2"/><circle cx="594" cy="79" r="5.2"/><circle cx="606" cy="79" r="5.1"/><circle cx="619" cy="79" r="5.2"/><circle cx="631" cy="79" r="5.0"/><circle cx="644" cy="79" r="4.7"/><circle cx="656" cy="79" r="5.2"/><circle cx="669" cy="79" r="5.2"/><circle cx="681" cy="79" r="5.2"/><circle cx="694" cy="79" r="5.2"/><circle cx="706" cy="79" r="3.3"/><circle cx="744" cy="79" r="2.0"/><circle cx="756" cy="79" r="3.1"/><circle cx="119" cy="91" r="2.0"/><circle cx="131" cy="91" r="5.0"/><circle cx="144" cy="91" r="5.1"/><circle cx="156" cy="91" r="5.2"/><circle cx="169" cy="91" r="5.2"/><circle cx="181" cy="91" r="5.0"/><circle cx="194" cy="91" r="4.5"/><circle cx="206" cy="91" r="3.7"/><circle cx="231" cy="91" r="4.9"/><circle cx="256" cy="91" r="3.1"/><circle cx="269" cy="91" r="2.1"/><circle cx="281" cy="91" r="2.0"/><circle cx="394" cy="91" r="2.4"/><circle cx="406" cy="91" r="4.6"/><circle cx="419" cy="91" r="5.1"/><circle cx="444" cy="91" r="5.2"/><circle cx="456" cy="91" r="5.2"/><circle cx="469" cy="91" r="5.0"/><circle cx="481" cy="91" r="4.8"/><circle cx="494" cy="91" r="5.1"/><circle cx="506" cy="91" r="5.1"/><circle cx="519" cy="91" r="4.9"/><circle cx="531" cy="91" r="5.2"/><circle cx="544" cy="91" r="5.2"/><circle cx="556" cy="91" r="5.2"/><circle cx="569" cy="91" r="5.0"/><circle cx="581" cy="91" r="5.1"/><circle cx="606" cy="91" r="5.1"/><circle cx="631" cy="91" r="5.1"/><circle cx="644" cy="91" r="5.2"/><circle cx="656" cy="91" r="5.1"/><circle cx="669" cy="91" r="5.2"/><circle cx="681" cy="91" r="5.2"/><circle cx="694" cy="91" r="5.2"/><circle cx="706" cy="91" r="4.4"/><circle cx="719" cy="91" r="2.0"/><circle cx="131" cy="104" r="5.1"/><circle cx="144" cy="104" r="5.1"/><circle cx="156" cy="104" r="5.1"/><circle cx="169" cy="104" r="5.2"/><circle cx="181" cy="104" r="5.1"/><circle cx="206" cy="104" r="4.1"/><circle cx="219" cy="104" r="3.6"/><circle cx="231" cy="104" r="4.8"/><circle cx="244" cy="104" r="3.1"/><circle cx="256" cy="104" r="2.0"/><circle cx="381" cy="104" r="2.0"/><circle cx="394" cy="104" r="3.2"/><circle cx="406" cy="104" r="3.7"/><circle cx="419" cy="104" r="2.6"/><circle cx="431" cy="104" r="3.2"/><circle cx="444" cy="104" r="4.4"/><circle cx="456" cy="104" r="4.9"/><circle cx="469" cy="104" r="2.0"/><circle cx="481" cy="104" r="2.0"/><circle cx="494" cy="104" r="4.4"/><circle cx="506" cy="104" r="2.8"/><circle cx="519" cy="104" r="3.7"/><circle cx="544" cy="104" r="5.2"/><circle cx="556" cy="104" r="5.2"/><circle cx="569" cy="104" r="5.0"/><circle cx="581" cy="104" r="5.2"/><circle cx="594" cy="104" r="5.2"/><circle cx="606" cy="104" r="5.2"/><circle cx="619" cy="104" r="5.2"/><circle cx="644" cy="104" r="5.2"/><circle cx="656" cy="104" r="5.2"/><circle cx="669" cy="104" r="5.1"/><circle cx="681" cy="104" r="5.2"/><circle cx="694" cy="104" r="3.2"/><circle cx="719" cy="104" r="2.0"/><circle cx="131" cy="116" r="4.1"/><circle cx="144" cy="116" r="5.2"/><circle cx="156" cy="116" r="5.2"/><circle cx="169" cy="116" r="5.2"/><circle cx="181" cy="116" r="5.2"/><circle cx="194" cy="116" r="5.1"/><circle cx="206" cy="116" r="5.1"/><circle cx="219" cy="116" r="5.2"/><circle cx="231" cy="116" r="3.0"/><circle cx="381" cy="116" r="2.1"/><circle cx="406" cy="116" r="2.0"/><circle cx="419" cy="116" r="2.1"/><circle cx="444" cy="116" r="2.0"/><circle cx="456" cy="116" r="2.0"/><circle cx="469" cy="116" r="3.8"/><circle cx="481" cy="116" r="4.6"/><circle cx="494" cy="116" r="5.1"/><circle cx="506" cy="116" r="4.4"/><circle cx="519" cy="116" r="3.4"/><circle cx="531" cy="116" r="5.2"/><circle cx="544" cy="116" r="5.2"/><circle cx="569" cy="116" r="5.2"/><circle cx="581" cy="116" r="5.2"/><circle cx="594" cy="116" r="5.2"/><circle cx="606" cy="116" r="5.2"/><circle cx="619" cy="116" r="5.1"/><circle cx="631" cy="116" r="5.2"/><circle cx="656" cy="116" r="5.1"/><circle cx="669" cy="116" r="2.0"/><circle cx="681" cy="116" r="2.9"/><circle cx="706" cy="116" r="2.2"/><circle cx="144" cy="129" r="3.5"/><circle cx="156" cy="129" r="5.2"/><circle cx="169" cy="129" r="5.2"/><circle cx="181" cy="129" r="5.2"/><circle cx="194" cy="129" r="4.9"/><circle cx="206" cy="129" r="4.4"/><circle cx="219" cy="129" r="3.7"/><circle cx="381" cy="129" r="3.0"/><circle cx="394" cy="129" r="5.2"/><circle cx="406" cy="129" r="5.2"/><circle cx="419" cy="129" r="5.1"/><circle cx="456" cy="129" r="2.3"/><circle cx="469" cy="129" r="2.0"/><circle cx="481" cy="129" r="4.4"/><circle cx="494" cy="129" r="5.2"/><circle cx="506" cy="129" r="4.9"/><circle cx="519" cy="129" r="5.2"/><circle cx="531" cy="129" r="5.2"/><circle cx="544" cy="129" r="5.2"/><circle cx="556" cy="129" r="5.2"/><circle cx="569" cy="129" r="5.2"/><circle cx="581" cy="129" r="5.1"/><circle cx="594" cy="129" r="5.1"/><circle cx="606" cy="129" r="5.1"/><circle cx="619" cy="129" r="5.2"/><circle cx="631" cy="129" r="5.2"/><circle cx="644" cy="129" r="5.1"/><circle cx="656" cy="129" r="5.1"/><circle cx="669" cy="129" r="2.6"/><circle cx="694" cy="129" r="2.0"/><circle cx="156" cy="141" r="3.2"/><circle cx="169" cy="141" r="5.2"/><circle cx="181" cy="141" r="3.8"/><circle cx="219" cy="141" r="2.0"/><circle cx="369" cy="141" r="2.4"/><circle cx="381" cy="141" r="5.2"/><circle cx="394" cy="141" r="5.2"/><circle cx="406" cy="141" r="5.2"/><circle cx="419" cy="141" r="5.2"/><circle cx="431" cy="141" r="5.2"/><circle cx="444" cy="141" r="5.2"/><circle cx="456" cy="141" r="5.2"/><circle cx="469" cy="141" r="5.1"/><circle cx="481" cy="141" r="3.7"/><circle cx="494" cy="141" r="5.2"/><circle cx="506" cy="141" r="4.4"/><circle cx="519" cy="141" r="2.9"/><circle cx="544" cy="141" r="3.8"/><circle cx="556" cy="141" r="5.2"/><circle cx="569" cy="141" r="5.2"/><circle cx="581" cy="141" r="5.1"/><circle cx="594" cy="141" r="5.1"/><circle cx="606" cy="141" r="5.1"/><circle cx="619" cy="141" r="5.1"/><circle cx="631" cy="141" r="5.2"/><circle cx="644" cy="141" r="5.2"/><circle cx="656" cy="141" r="5.1"/><circle cx="669" cy="141" r="2.0"/><circle cx="169" cy="154" r="3.7"/><circle cx="181" cy="154" r="3.9"/><circle cx="206" cy="154" r="2.0"/><circle cx="231" cy="154" r="2.0"/><circle cx="369" cy="154" r="4.8"/><circle cx="381" cy="154" r="5.2"/><circle cx="394" cy="154" r="5.2"/><circle cx="419" cy="154" r="5.2"/><circle cx="431" cy="154" r="5.2"/><circle cx="444" cy="154" r="5.2"/><circle cx="456" cy="154" r="5.2"/><circle cx="469" cy="154" r="5.2"/><circle cx="481" cy="154" r="3.2"/><circle cx="494" cy="154" r="4.6"/><circle cx="506" cy="154" r="5.2"/><circle cx="519" cy="154" r="5.2"/><circle cx="531" cy="154" r="2.0"/><circle cx="556" cy="154" r="2.0"/><circle cx="569" cy="154" r="5.2"/><circle cx="581" cy="154" r="5.2"/><circle cx="606" cy="154" r="3.1"/><circle cx="619" cy="154" r="5.2"/><circle cx="631" cy="154" r="4.8"/><circle cx="644" cy="154" r="2.7"/><circle cx="181" cy="166" r="2.0"/><circle cx="206" cy="166" r="3.4"/><circle cx="369" cy="166" r="4.9"/><circle cx="381" cy="166" r="5.2"/><circle cx="394" cy="166" r="5.2"/><circle cx="406" cy="166" r="5.2"/><circle cx="419" cy="166" r="5.2"/><circle cx="444" cy="166" r="5.2"/><circle cx="456" cy="166" r="5.2"/><circle cx="481" cy="166" r="5.1"/><circle cx="494" cy="166" r="3.2"/><circle cx="506" cy="166" r="3.8"/><circle cx="569" cy="166" r="4.4"/><circle cx="581" cy="166" r="2.1"/><circle cx="631" cy="166" r="5.1"/><circle cx="644" cy="166" r="2.0"/><circle cx="669" cy="166" r="2.0"/><circle cx="219" cy="179" r="2.0"/><circle cx="231" cy="179" r="2.6"/><circle cx="244" cy="179" r="4.1"/><circle cx="269" cy="179" r="2.0"/><circle cx="369" cy="179" r="2.6"/><circle cx="381" cy="179" r="5.2"/><circle cx="394" cy="179" r="5.2"/><circle cx="406" cy="179" r="5.2"/><circle cx="419" cy="179" r="5.2"/><circle cx="431" cy="179" r="5.2"/><circle cx="456" cy="179" r="5.2"/><circle cx="469" cy="179" r="5.2"/><circle cx="481" cy="179" r="5.1"/><circle cx="494" cy="179" r="4.7"/><circle cx="506" cy="179" r="3.7"/><circle cx="569" cy="179" r="2.0"/><circle cx="619" cy="179" r="2.0"/><circle cx="631" cy="179" r="2.0"/><circle cx="681" cy="179" r="2.0"/><circle cx="231" cy="191" r="4.3"/><circle cx="244" cy="191" r="5.2"/><circle cx="256" cy="191" r="5.2"/><circle cx="269" cy="191" r="5.0"/><circle cx="281" cy="191" r="3.7"/><circle cx="381" cy="191" r="2.0"/><circle cx="394" cy="191" r="2.0"/><circle cx="419" cy="191" r="3.1"/><circle cx="444" cy="191" r="5.2"/><circle cx="456" cy="191" r="5.2"/><circle cx="469" cy="191" r="5.1"/><circle cx="481" cy="191" r="5.1"/><circle cx="494" cy="191" r="5.2"/><circle cx="506" cy="191" r="2.2"/><circle cx="631" cy="191" r="2.0"/><circle cx="219" cy="204" r="2.0"/><circle cx="231" cy="204" r="5.2"/><circle cx="244" cy="204" r="5.1"/><circle cx="256" cy="204" r="5.0"/><circle cx="269" cy="204" r="5.0"/><circle cx="281" cy="204" r="5.0"/><circle cx="294" cy="204" r="3.5"/><circle cx="419" cy="204" r="2.0"/><circle cx="431" cy="204" r="5.2"/><circle cx="444" cy="204" r="5.1"/><circle cx="456" cy="204" r="5.2"/><circle cx="469" cy="204" r="4.3"/><circle cx="494" cy="204" r="2.0"/><circle cx="631" cy="204" r="3.1"/><circle cx="656" cy="204" r="3.5"/><circle cx="669" cy="204" r="2.1"/><circle cx="706" cy="204" r="2.1"/><circle cx="231" cy="216" r="5.1"/><circle cx="244" cy="216" r="5.2"/><circle cx="256" cy="216" r="5.1"/><circle cx="269" cy="216" r="5.2"/><circle cx="281" cy="216" r="5.2"/><circle cx="294" cy="216" r="5.2"/><circle cx="306" cy="216" r="5.2"/><circle cx="319" cy="216" r="3.7"/><circle cx="431" cy="216" r="3.8"/><circle cx="444" cy="216" r="5.2"/><circle cx="456" cy="216" r="5.2"/><circle cx="481" cy="216" r="5.1"/><circle cx="644" cy="216" r="2.0"/><circle cx="706" cy="216" r="2.0"/><circle cx="719" cy="216" r="3.7"/><circle cx="731" cy="216" r="2.0"/><circle cx="231" cy="229" r="3.3"/><circle cx="256" cy="229" r="5.1"/><circle cx="269" cy="229" r="5.2"/><circle cx="281" cy="229" r="5.2"/><circle cx="294" cy="229" r="5.2"/><circle cx="306" cy="229" r="5.2"/><circle cx="319" cy="229" r="2.0"/><circle cx="431" cy="229" r="3.6"/><circle cx="444" cy="229" r="5.2"/><circle cx="456" cy="229" r="5.2"/><circle cx="481" cy="229" r="4.8"/><circle cx="719" cy="229" r="2.0"/><circle cx="244" cy="241" r="3.3"/><circle cx="269" cy="241" r="5.2"/><circle cx="281" cy="241" r="5.2"/><circle cx="294" cy="241" r="5.1"/><circle cx="444" cy="241" r="5.2"/><circle cx="456" cy="241" r="5.2"/><circle cx="469" cy="241" r="5.2"/><circle cx="506" cy="241" r="3.9"/><circle cx="669" cy="241" r="2.2"/><circle cx="681" cy="241" r="5.1"/><circle cx="694" cy="241" r="5.2"/><circle cx="706" cy="241" r="4.5"/><circle cx="719" cy="241" r="4.9"/><circle cx="244" cy="254" r="2.8"/><circle cx="256" cy="254" r="5.2"/><circle cx="269" cy="254" r="5.2"/><circle cx="281" cy="254" r="5.2"/><circle cx="294" cy="254" r="3.7"/><circle cx="444" cy="254" r="5.2"/><circle cx="456" cy="254" r="5.2"/><circle cx="656" cy="254" r="3.9"/><circle cx="669" cy="254" r="5.2"/><circle cx="681" cy="254" r="5.2"/><circle cx="694" cy="254" r="5.2"/><circle cx="719" cy="254" r="5.2"/><circle cx="731" cy="254" r="4.6"/><circle cx="244" cy="266" r="3.6"/><circle cx="256" cy="266" r="5.2"/><circle cx="281" cy="266" r="4.8"/><circle cx="444" cy="266" r="4.8"/><circle cx="656" cy="266" r="3.0"/><circle cx="669" cy="266" r="5.2"/><circle cx="681" cy="266" r="5.0"/><circle cx="694" cy="266" r="4.7"/><circle cx="706" cy="266" r="5.2"/><circle cx="719" cy="266" r="5.2"/><circle cx="731" cy="266" r="5.2"/><circle cx="256" cy="279" r="5.2"/><circle cx="269" cy="279" r="4.5"/><circle cx="281" cy="279" r="2.0"/><circle cx="444" cy="279" r="2.0"/><circle cx="456" cy="279" r="2.0"/><circle cx="656" cy="279" r="2.0"/><circle cx="669" cy="279" r="2.0"/><circle cx="706" cy="279" r="2.4"/><circle cx="719" cy="279" r="5.2"/><circle cx="731" cy="279" r="3.9"/><circle cx="244" cy="291" r="5.0"/><circle cx="256" cy="291" r="3.7"/><circle cx="781" cy="291" r="2.0"/><circle cx="231" cy="304" r="2.0"/><circle cx="244" cy="304" r="5.1"/><circle cx="244" cy="316" r="3.7"/><circle class="sn" cx="194" cy="29" r="7.9"/><circle class="sn" cx="319" cy="29" r="7.9"/><circle class="sn" cx="194" cy="41" r="7.9"/><circle class="sn" cx="456" cy="41" r="7.9"/><circle class="sn" cx="469" cy="41" r="7.9"/><circle class="sn" cx="556" cy="41" r="7.9"/><circle class="sn" cx="669" cy="41" r="7.9"/><circle class="sn" cx="156" cy="54" r="7.9"/><circle class="sn" cx="256" cy="54" r="7.9"/><circle class="sn" cx="281" cy="54" r="7.9"/><circle class="sn" cx="619" cy="54" r="7.9"/><circle class="sn" cx="631" cy="54" r="7.9"/><circle class="sn" cx="56" cy="66" r="7.9"/><circle class="sn" cx="119" cy="66" r="7.9"/><circle class="sn" cx="131" cy="66" r="7.9"/><circle class="sn" cx="181" cy="66" r="7.9"/><circle class="sn" cx="294" cy="66" r="7.9"/><circle class="sn" cx="719" cy="66" r="7.9"/><circle class="sn" cx="219" cy="79" r="7.9"/><circle class="sn" cx="419" cy="79" r="7.9"/><circle class="sn" cx="494" cy="79" r="7.9"/><circle class="sn" cx="219" cy="91" r="7.9"/><circle class="sn" cx="244" cy="91" r="7.9"/><circle class="sn" cx="431" cy="91" r="7.9"/><circle class="sn" cx="594" cy="91" r="7.9"/><circle class="sn" cx="619" cy="91" r="7.9"/><circle class="sn" cx="194" cy="104" r="7.9"/><circle class="sn" cx="531" cy="104" r="7.9"/><circle class="sn" cx="631" cy="104" r="7.9"/><circle class="sn" cx="394" cy="116" r="7.9"/><circle class="sn" cx="556" cy="116" r="7.9"/><circle class="sn" cx="644" cy="116" r="7.9"/><circle class="sn" cx="431" cy="129" r="7.9"/><circle class="sn" cx="444" cy="129" r="7.9"/><circle class="sn" cx="531" cy="141" r="7.9"/><circle class="sn" cx="406" cy="154" r="7.9"/><circle class="sn" cx="594" cy="154" r="7.9"/><circle class="sn" cx="194" cy="166" r="7.9"/><circle class="sn" cx="431" cy="166" r="7.9"/><circle class="sn" cx="469" cy="166" r="7.9"/><circle class="sn" cx="519" cy="166" r="7.9"/><circle class="sn" cx="619" cy="166" r="7.9"/><circle class="sn" cx="256" cy="179" r="7.9"/><circle class="sn" cx="444" cy="179" r="7.9"/><circle class="sn" cx="581" cy="179" r="7.9"/><circle class="sn" cx="431" cy="191" r="7.9"/><circle class="sn" cx="619" cy="191" r="7.9"/><circle class="sn" cx="656" cy="191" r="7.9"/><circle class="sn" cx="306" cy="204" r="7.9"/><circle class="sn" cx="481" cy="204" r="7.9"/><circle class="sn" cx="644" cy="204" r="7.9"/><circle class="sn" cx="694" cy="204" r="7.9"/><circle class="sn" cx="469" cy="216" r="7.9"/><circle class="sn" cx="244" cy="229" r="7.9"/><circle class="sn" cx="469" cy="229" r="7.9"/><circle class="sn" cx="494" cy="229" r="7.9"/><circle class="sn" cx="506" cy="229" r="7.9"/><circle class="sn" cx="694" cy="229" r="7.9"/><circle class="sn" cx="256" cy="241" r="7.9"/><circle class="sn" cx="306" cy="241" r="7.9"/><circle class="sn" cx="431" cy="241" r="7.9"/><circle class="sn" cx="481" cy="241" r="7.9"/><circle class="sn" cx="431" cy="254" r="7.9"/><circle class="sn" cx="469" cy="254" r="7.9"/><circle class="sn" cx="506" cy="254" r="7.9"/><circle class="sn" cx="706" cy="254" r="7.9"/><circle class="sn" cx="269" cy="266" r="7.9"/><circle class="sn" cx="456" cy="266" r="7.9"/><circle class="sn" cx="469" cy="266" r="7.9"/><circle class="sn" cx="744" cy="266" r="7.9"/><circle class="sn" cx="244" cy="279" r="7.9"/><circle class="sn" cx="794" cy="291" r="7.9"/></svg>